<svg width="32" height="28" viewBox="0 0 32 28" fill="none" xmlns="http://www.w3.org/2000/svg">
<path fill-rule="evenodd" clip-rule="evenodd" d="M19.3898 3.27984C19.8214 2.78766 20.2963 2.29329 20.7917 1.84815C21.3897 1.31089 22.0858 0.783036 22.8278 0.438351C23.6626 0.0506288 24.6257 -0.233001 25.7083 0.270533C26.6762 0.720726 27.5752 1.7783 28.1832 3.2503C28.7551 4.635 29.1215 6.49394 29.0668 8.91369C29.8002 9.72489 30.6679 10.8185 31.1627 11.8181C31.3134 12.1226 31.4502 12.4587 31.5306 12.8056C31.6088 13.1434 31.6546 13.5811 31.5252 14.0353C31.4448 14.3178 31.3062 14.5709 31.1186 14.7833C31.4768 15.4656 31.7979 16.2249 31.9312 16.9197C32.0372 17.472 32.1121 18.4381 31.43 19.1598C31.1396 19.4671 30.7963 19.6429 30.4375 19.7315C30.2573 21.2858 29.4975 23.0677 27.8178 24.5773C25.5904 26.579 21.8682 28 16.0088 28C10.1488 28 6.41916 26.5788 4.18086 24.5799C2.58005 23.1504 1.80323 21.4756 1.56465 19.9809C1.30921 19.9378 1.05397 19.8396 0.810604 19.6638C0.374822 19.349 0.167545 18.9042 0.0762116 18.5301C-0.0131664 18.164 -0.0121719 17.7931 0.019674 17.4704C0.0878202 16.7798 0.333395 15.9833 0.673582 15.2094C0.55421 15.1003 0.445641 14.9684 0.353916 14.8103C0.0615224 14.3063 0.0858261 13.7718 0.138381 13.4355C0.195372 13.0708 0.322101 12.7084 0.464938 12.3816C0.952605 11.2657 1.92123 9.91311 2.89164 8.88848C2.84013 6.48102 3.20593 4.63019 3.77586 3.2503C4.38384 1.7783 5.28279 0.720726 6.25073 0.270532C6.88018 -0.0222251 7.58215 -0.0151931 8.36232 0.269195C9.0952 0.536347 9.96444 1.06971 11.0568 1.93149L11.091 1.95844L11.1233 1.9877C11.2256 2.08045 11.3263 2.17509 11.4252 2.27118C11.4386 2.22992 11.4531 2.18893 11.4688 2.14835C11.5572 1.92011 11.711 1.63138 11.9859 1.3929C12.2843 1.13399 12.6575 0.994859 13.0531 0.994859C13.6549 0.994859 14.1981 1.27108 14.5656 1.50019C14.9715 1.75328 15.3666 2.08005 15.7127 2.40865C15.7886 2.4807 15.8634 2.55408 15.9369 2.6283C16.1566 2.41122 16.435 2.21701 16.7835 2.10826C17.6422 1.84028 18.402 2.22898 18.9323 2.74791C19.0888 2.90106 19.241 3.07863 19.3898 3.27984Z" fill="#727272"/>
<path fill-rule="evenodd" clip-rule="evenodd" d="M23.3537 1.61468C24.0697 1.2821 24.6011 1.17646 25.1819 1.44659C25.7627 1.71671 26.4808 2.46 27.0144 3.75191C27.5413 5.02756 27.9019 6.86569 27.7805 9.4094C28.8541 10.5295 30.379 12.4382 30.3375 13.4779C30.32 13.9174 30.0224 14.2016 29.2924 14.2051C29.529 14.5583 29.7847 14.9801 30.014 15.4194C30.6192 16.5785 31.0409 17.8601 30.444 18.3293C30.2045 18.5175 29.8011 18.575 29.1799 18.4414C29.228 18.8308 29.2261 19.2753 29.1555 19.7514C28.7262 22.6443 25.7572 26.7073 16.0088 26.7073C6.34597 26.7073 3.31573 22.7152 2.82527 19.8278C2.73949 19.3228 2.7314 18.8516 2.7791 18.4414C2.13294 18.7763 1.72207 18.7815 1.4945 18.5684C1.05179 18.1537 1.30272 16.9123 1.86459 15.662C2.09009 15.1602 2.36567 14.6569 2.66659 14.2051C1.75392 14.5361 1.38577 14.3412 1.37423 13.8619C1.3506 12.8797 2.82426 10.7031 4.17853 9.4094C4.05717 6.86569 4.41774 5.02756 4.94462 3.75191C5.47822 2.46 6.19634 1.71671 6.77713 1.44659C7.29923 1.20376 8.17567 1.29317 10.2807 2.9538C10.6422 3.28137 10.9825 3.63747 11.2913 3.99623C11.7228 4.49754 12.0927 5.00405 12.3727 5.44521L12.7816 5.35344C12.7702 5.30396 12.7588 5.25208 12.7473 5.19815C12.7416 5.17108 12.7359 5.14349 12.7302 5.11543C12.6334 4.63934 12.5435 4.02736 12.5371 3.49454C12.5291 2.82935 12.6513 2.28754 13.0531 2.28754C13.6438 2.28754 14.5385 2.99967 15.2228 3.73226C15.6685 4.20941 16.025 4.69524 16.1501 4.99864C16.2627 4.49298 16.4735 3.92801 16.7791 3.59819C17.1954 3.14899 17.7875 3.13595 18.5467 4.30297C18.7551 4.62321 18.9761 5.03231 19.2094 5.54563C19.4622 5.20003 19.759 4.81882 20.0857 4.43144C20.553 3.87754 21.0814 3.31101 21.6302 2.81791C22.1815 2.32266 22.7708 1.88542 23.3537 1.61468ZM19.3898 3.27984C19.8214 2.78766 20.2963 2.29329 20.7917 1.84815C21.3897 1.31089 22.0858 0.783036 22.8278 0.438351C23.6626 0.0506288 24.6257 -0.233001 25.7083 0.270533C26.6762 0.720726 27.5752 1.7783 28.1832 3.2503C28.7551 4.635 29.1215 6.49394 29.0668 8.91369C29.8002 9.72489 30.6679 10.8185 31.1627 11.8181C31.3134 12.1226 31.4502 12.4587 31.5306 12.8056C31.6088 13.1434 31.6546 13.5811 31.5252 14.0353C31.4448 14.3178 31.3062 14.5709 31.1186 14.7833C31.4768 15.4656 31.7979 16.2249 31.9312 16.9197C32.0372 17.472 32.1121 18.4381 31.43 19.1598C31.1396 19.4671 30.7963 19.6429 30.4375 19.7315C30.2573 21.2858 29.4975 23.0677 27.8178 24.5773C25.5904 26.579 21.8682 28 16.0088 28C10.1488 28 6.41916 26.5788 4.18086 24.5799C2.58005 23.1504 1.80323 21.4756 1.56465 19.9809C1.30921 19.9378 1.05397 19.8396 0.810604 19.6638C0.374822 19.349 0.167545 18.9042 0.0762116 18.5301C-0.0131664 18.164 -0.0121719 17.7931 0.019674 17.4704C0.0878202 16.7798 0.333395 15.9833 0.673582 15.2094C0.55421 15.1003 0.445641 14.9684 0.353916 14.8103C0.0615224 14.3063 0.0858262 13.7718 0.138381 13.4355C0.195372 13.0708 0.322101 12.7084 0.464938 12.3816C0.952605 11.2657 1.92123 9.91311 2.89164 8.88848C2.84013 6.48102 3.20593 4.63019 3.77586 3.2503C4.38384 1.7783 5.28279 0.720726 6.25073 0.270532C6.88018 -0.022225 7.58215 -0.0151931 8.36232 0.269195C9.0952 0.536347 9.96444 1.06971 11.0568 1.93149L11.091 1.95844L11.1233 1.9877C11.2256 2.08045 11.3263 2.17509 11.4252 2.27118C11.4386 2.22992 11.4531 2.18893 11.4688 2.14835C11.5572 1.92011 11.711 1.63138 11.9859 1.3929C12.2843 1.13399 12.6575 0.994859 13.0531 0.994859C13.6549 0.994859 14.1981 1.27108 14.5656 1.50019C14.9715 1.75328 15.3666 2.08005 15.7127 2.40865C15.7886 2.4807 15.8634 2.55408 15.9369 2.6283C16.1566 2.41122 16.435 2.21701 16.7835 2.10826C17.6422 1.84028 18.402 2.22898 18.9323 2.74791C19.0888 2.90106 19.241 3.07863 19.3898 3.27984Z" fill="#232426"/>
<path d="M14.1045 14.4432C14.5 16 13 17.6899 13 17.6899C13.983 17.0232 16.285 16.0899 18.6443 17.6899C18.6443 17.6899 18 16.5 18 14.6899C18 12.8053 20.0117 11 22.5 11C24.9883 11 26.5085 12.5 27 15C27 16.5544 26.2259 18.206 25 19C26.5 21.5 24.7304 23.6025 22 24.5C19.2696 25.3975 12.7565 25.363 10 24.5C7.26962 23.6452 5.5 21.5 7 19C5.5 18.5 5 16.5499 5 15C5 12.5461 7.01166 10.5 9.5 10.5C11.6262 10.5 13.5293 12.1899 14.1045 14.4432Z" fill="white"/>
<path d="M10.4813 17.5635C11.2485 17.5635 11.8705 16.7682 11.8705 15.7871C11.8705 14.8059 11.2485 14.0106 10.4813 14.0106C9.71409 14.0106 9.09214 14.8059 9.09214 15.7871C9.09214 16.7682 9.71409 17.5635 10.4813 17.5635Z" fill="#232426"/>
<path d="M21.4589 17.5635C22.2261 17.5635 22.8481 16.7682 22.8481 15.7871C22.8481 14.8059 22.2261 14.0106 21.4589 14.0106C20.6917 14.0106 20.0697 14.8059 20.0697 15.7871C20.0697 16.7682 20.6917 17.5635 21.4589 17.5635Z" fill="#232426"/>
<path fill-rule="evenodd" clip-rule="evenodd" d="M15.5054 21.5162V20.5332C14.7231 20.3753 14.1163 19.814 14.1163 19.1156C14.1163 18.2866 14.967 17.6529 15.9633 17.6529C16.9596 17.6529 17.8102 18.2866 17.8102 19.1156C17.8102 19.7699 17.2765 20.3045 16.5673 20.4986V21.5162C16.7945 21.7142 17.1099 21.8904 17.4416 21.9204C17.6236 21.9368 17.8355 21.9116 18.0663 21.7904C18.298 21.6687 18.5537 21.4477 18.8184 21.065C18.9865 20.8218 19.3176 20.7626 19.5578 20.9329C19.798 21.1031 19.8564 21.4383 19.6883 21.6814C18.9868 22.696 18.152 23.0638 17.3472 22.9911C16.828 22.9442 16.3764 22.7182 16.0363 22.4618C15.6963 22.7182 15.2447 22.9442 14.7254 22.9911C13.9207 23.0638 13.0859 22.696 12.3844 21.6815C12.2162 21.4383 12.2747 21.1031 12.5149 20.9329C12.7551 20.7626 13.0861 20.8218 13.2543 21.065C13.5189 21.4477 13.7746 21.6687 14.0064 21.7904C14.2372 21.9116 14.449 21.9368 14.6311 21.9204C14.9628 21.8904 15.2782 21.7142 15.5054 21.5162Z" fill="#232426"/>
<path fill-rule="evenodd" clip-rule="evenodd" d="M14.5928 15.8932C14.2314 18.3713 12.1219 20.2731 9.57372 20.2731C6.77158 20.2731 4.5 17.9734 4.5 15.1365C4.5 12.2997 6.77158 10 9.57372 10C12.1847 10 14.3351 11.9967 14.6163 14.5641C15.3384 14.3176 16.3395 14.2033 17.4185 14.5812C17.8105 12.1392 19.9034 10.2749 22.4263 10.2749C25.2284 10.2749 27.5 12.5746 27.5 15.4115C27.5 18.2483 25.2284 20.548 22.4263 20.548C19.7775 20.548 17.6028 18.4931 17.3727 15.8721C16.1668 15.2956 15.0682 15.6208 14.5928 15.8932ZM9.57372 19.059C11.7135 19.059 13.4482 17.3029 13.4482 15.1365C13.4482 12.9702 11.7135 11.2141 9.57372 11.2141C7.43391 11.2141 5.69924 12.9702 5.69924 15.1365C5.69924 17.3029 7.43391 19.059 9.57372 19.059ZM22.4263 19.3339C24.5661 19.3339 26.3008 17.5778 26.3008 15.4115C26.3008 13.2452 24.5661 11.489 22.4263 11.489C20.2865 11.489 18.5518 13.2452 18.5518 15.4115C18.5518 17.5778 20.2865 19.3339 22.4263 19.3339Z" fill="#232426"/>
</svg>
